<svg xmlns="http://www.w3.org/2000/svg" width="512" height="512" viewBox="0 0 512 512" version="1.1">
	<path d="M 343.971 1.407 C 324.753 8.678, 310.610 24.945, 306.504 44.500 C 304.647 53.348, 304.647 59.652, 306.504 68.500 C 310.926 89.560, 327.414 107.034, 348.045 112.525 C 355.059 114.391, 368.960 114.386, 375.992 112.515 C 394.400 107.616, 409.625 93.063, 415.882 74.384 C 424.853 47.605, 412.006 16.950, 386.559 4.412 L 378.618 0.500 363.059 0.286 C 352.050 0.134, 346.468 0.462, 343.971 1.407 M 168.314 36.950 C 164.599 39.216, 162.938 41.950, 161.907 47.500 C 160.582 54.629, 161.598 56.412, 174.772 70.087 C 181.647 77.223, 187.098 83.197, 186.886 83.363 C 186.674 83.528, 182.675 84.227, 178 84.916 C 144.029 89.920, 110.302 103.663, 86.638 122.143 C 78.535 128.471, 65.346 141.767, 58.508 150.500 C 42.146 171.396, 29.608 198.510, 21.556 230.408 C 17.364 247.016, 16.862 249.797, 17.940 250.463 C 18.421 250.760, 21.444 248.258, 24.657 244.903 C 31.353 237.912, 37.995 234.143, 45.107 233.301 C 47.830 232.978, 50.369 232.216, 50.748 231.607 C 51.128 230.998, 53.301 225.934, 55.578 220.352 C 60.448 208.417, 69.288 191.430, 75.175 182.697 C 85.459 167.439, 100.412 151.813, 113.753 142.380 C 123.512 135.480, 142.939 125.874, 154.500 122.233 C 164.547 119.068, 184.057 114.724, 184.816 115.483 C 185.040 115.706, 179.997 121.714, 173.611 128.834 C 163.656 139.932, 162.001 142.257, 162.006 145.139 C 162.016 151.311, 163.908 155.828, 167.692 158.714 C 170.695 161.005, 172.299 161.467, 177.250 161.467 L 183.199 161.467 211.980 132.415 C 242.548 101.559, 243.656 100.088, 240.660 94.323 C 238.587 90.335, 184.728 37.227, 181.518 36.007 C 177.368 34.429, 171.796 34.827, 168.314 36.950 M 349.635 131.073 C 345.564 134.275, 345.986 139.617, 350.879 146.822 L 354.758 152.534 353.315 167.913 L 351.872 183.291 355.623 193.194 C 359.052 202.249, 359.580 203.071, 361.795 202.798 C 363.827 202.548, 364.847 200.985, 368.123 193.101 L 372.028 183.702 370.457 167.879 L 368.887 152.056 372.944 146.083 C 377.735 139.028, 378.053 135.709, 374.313 131.805 C 371.731 129.110, 371.246 129, 361.948 129 C 353.671 129, 351.888 129.300, 349.635 131.073 M 299.730 135.046 C 281.874 138.274, 277.471 140.168, 268.107 148.641 C 261.095 154.987, 256.889 161.306, 254.078 169.718 C 252.094 175.655, 252 178.024, 252 222.001 C 252 272.943, 251.877 271.870, 258.467 278.271 C 265.702 285.297, 261.086 285, 363.064 285 L 454.772 285 460.136 282.207 C 464.274 280.052, 466.243 278.176, 468.750 274.001 L 472 268.588 471.980 226.544 C 471.969 203.420, 471.509 181.375, 470.957 177.556 C 468.805 162.665, 458.211 147.669, 445.206 141.104 C 438.098 137.516, 423.639 134.237, 410.959 133.336 L 402.416 132.730 398.306 141.615 C 393.974 150.982, 389.057 164.180, 379.162 193 C 371.906 214.135, 365.470 230.084, 363.759 231.170 C 362.192 232.165, 360.830 232.185, 359.376 231.235 C 358.758 230.831, 350.750 209.849, 341.579 184.610 C 332.409 159.370, 324.269 137.487, 323.490 135.981 C 321.011 131.187, 321.058 131.189, 299.730 135.046 M 126.645 226.584 C 117.867 228.709, 107.307 234.716, 100.423 241.500 C 80.553 261.082, 77.470 292.089, 93.074 315.419 C 99.386 324.856, 105.329 330.039, 115.500 334.978 C 128.460 341.271, 139.865 342.487, 153.415 339.022 C 164.246 336.252, 170.321 332.706, 179.114 324.020 C 191.184 312.099, 196.341 299.818, 196.341 283 C 196.341 268.724, 192.314 257.113, 183.671 246.467 C 169.655 229.205, 147.593 221.513, 126.645 226.584 M 490.996 288.750 C 489.842 291.363, 487.458 295.018, 485.699 296.872 C 481.919 300.858, 473.728 304.970, 469.500 305.006 C 467.850 305.019, 465.975 305.365, 465.333 305.773 C 464.692 306.181, 463.020 310.593, 461.619 315.578 C 444.927 374.945, 412.315 410.792, 360.817 426.378 C 349.828 429.703, 329.394 433.727, 328.423 432.756 C 328.159 432.492, 333.131 426.861, 339.471 420.243 C 351.891 407.280, 352.145 406.751, 349.901 398.500 C 347.891 391.106, 341.869 387.020, 332.961 387.006 C 329.653 387, 327.551 388.879, 300.711 415.822 L 272 444.645 272 449.033 L 272 453.422 301.227 482.711 L 330.455 512 336.323 512 C 345.992 512, 349.975 508.284, 351.516 497.823 L 352.205 493.146 341.235 481.323 C 335.201 474.820, 329.305 468.643, 328.132 467.595 C 326.960 466.547, 326 465.372, 326 464.982 C 326 464.593, 329.488 463.720, 333.750 463.042 C 338.012 462.365, 345.775 460.784, 351 459.528 C 424.716 441.820, 470.331 399.461, 488.331 332 C 491.787 319.048, 496 293.655, 496 285.776 C 496 282.320, 493.065 284.064, 490.996 288.750 M 95.500 358.119 C 78.287 359.433, 66.022 361.728, 62.012 364.385 C 60.080 365.664, 56.475 367.856, 54 369.255 C 47.090 373.160, 37.401 383.881, 33.706 391.710 L 30.500 398.500 30.215 447.525 L 29.929 496.551 32.925 501.025 C 34.572 503.486, 37.592 506.625, 39.636 508 L 43.353 510.500 137.426 510.789 C 189.167 510.949, 232.989 510.811, 234.810 510.483 C 239.051 509.719, 245.303 504.072, 247.942 498.621 C 249.898 494.578, 249.997 492.718, 249.931 460.934 C 249.893 442.545, 249.530 420.975, 249.123 413 C 248.406 398.925, 248.272 398.266, 244.543 390.500 C 239.310 379.600, 231.478 371.940, 219.718 366.220 C 208.836 360.927, 202.094 359.339, 184.975 358.033 C 169.312 356.838, 111.555 356.894, 95.500 358.119" stroke="none" fill="black" fill-rule="evenodd"/>
</svg>